<svg width="705" height="93" viewBox="0 0 705 93" fill="none" xmlns="http://www.w3.org/2000/svg">
<path d="M24.624 71.152C19.696 71.152 15.44 70.288 11.856 68.56C8.336 66.832 5.552 64.464 3.504 61.456C1.52 58.384 0.368 54.928 0.0480001 51.088H12.048C12.624 53.84 14.032 56.144 16.272 58C18.512 59.792 21.296 60.688 24.624 60.688C28.208 60.688 31.12 59.376 33.36 56.752C35.664 54.128 36.816 50.864 36.816 46.96C36.816 42.928 35.664 39.728 33.36 37.36C31.12 34.992 28.272 33.808 24.816 33.808C21.936 33.808 19.44 34.512 17.328 35.92C15.216 37.328 13.712 39.088 12.816 41.2H1.008L6.768 2.8H44.016V13.552H15.984L12.912 29.104C14.32 27.568 16.24 26.32 18.672 25.36C21.104 24.336 23.824 23.824 26.832 23.824C31.632 23.824 35.632 24.912 38.832 27.088C42.032 29.2 44.464 32.016 46.128 35.536C47.792 38.992 48.624 42.768 48.624 46.864C48.624 51.536 47.6 55.696 45.552 59.344C43.568 62.992 40.752 65.872 37.104 67.984C33.52 70.096 29.36 71.152 24.624 71.152ZM93.3983 71.152C88.4703 71.152 84.1183 70.32 80.3423 68.656C76.5663 66.928 73.5903 64.496 71.4143 61.36C69.2383 58.16 68.1183 54.288 68.0543 49.744H81.0143C81.1423 52.88 82.2623 55.536 84.3743 57.712C86.5503 59.824 89.5263 60.88 93.3023 60.88C96.5663 60.88 99.1583 60.112 101.078 58.576C102.998 56.976 103.958 54.864 103.958 52.24C103.958 49.488 103.094 47.344 101.366 45.808C99.7023 44.272 97.4623 43.024 94.6463 42.064C91.8303 41.104 88.8223 40.08 85.6223 38.992C80.4383 37.2 76.4703 34.896 73.7183 32.08C71.0303 29.264 69.6863 25.52 69.6863 20.848C69.6223 16.88 70.5503 13.488 72.4703 10.672C74.4543 7.792 77.1423 5.584 80.5343 4.048C83.9263 2.448 87.8303 1.648 92.2463 1.648C96.7263 1.648 100.662 2.448 104.054 4.048C107.51 5.64799 110.198 7.88799 112.118 10.768C114.102 13.648 115.158 17.072 115.286 21.04H102.134C102.07 18.672 101.142 16.592 99.3503 14.8C97.6223 12.944 95.1903 12.016 92.0543 12.016C89.3663 11.952 87.0943 12.624 85.2383 14.032C83.4463 15.376 82.5503 17.36 82.5503 19.984C82.5503 22.224 83.2543 24.016 84.6623 25.36C86.0703 26.64 87.9903 27.728 90.4223 28.624C92.8543 29.52 95.6383 30.48 98.7743 31.504C102.102 32.656 105.142 34 107.894 35.536C110.646 37.072 112.854 39.12 114.518 41.68C116.182 44.176 117.014 47.408 117.014 51.376C117.014 54.896 116.118 58.16 114.326 61.168C112.534 64.176 109.878 66.608 106.358 68.464C102.838 70.256 98.5183 71.152 93.3983 71.152ZM144.536 71.152C139.672 71.152 135.383 70.096 131.671 67.984C127.959 65.872 125.015 62.928 122.839 59.152C120.727 55.376 119.671 51.056 119.671 46.192C119.671 41.328 120.727 37.008 122.839 33.232C125.015 29.456 127.959 26.512 131.671 24.4C135.383 22.288 139.672 21.232 144.536 21.232C150.616 21.232 155.736 22.832 159.896 26.032C164.056 29.168 166.712 33.52 167.863 39.088H154.903C154.264 36.784 152.984 34.992 151.064 33.712C149.207 32.368 146.999 31.696 144.439 31.696C141.047 31.696 138.167 32.976 135.799 35.536C133.431 38.096 132.247 41.648 132.247 46.192C132.247 50.736 133.431 54.288 135.799 56.848C138.167 59.408 141.047 60.688 144.439 60.688C146.999 60.688 149.207 60.048 151.064 58.768C152.984 57.488 154.264 55.664 154.903 53.296H167.863C166.712 58.672 164.056 62.992 159.896 66.256C155.736 69.52 150.616 71.152 144.536 71.152ZM172.53 70V0.879997H184.818V29.68C186.418 27.056 188.562 25.008 191.25 23.536C194.002 22 197.138 21.232 200.658 21.232C206.546 21.232 211.09 23.088 214.29 26.8C217.554 30.512 219.186 35.952 219.186 43.12V70H206.994V44.272C206.994 40.176 206.162 37.04 204.498 34.864C202.898 32.688 200.338 31.6 196.818 31.6C193.362 31.6 190.482 32.816 188.178 35.248C185.938 37.68 184.818 41.072 184.818 45.424V70H172.53ZM224.696 70V22.384H235.544L236.504 30.448C237.976 27.632 240.088 25.392 242.84 23.728C245.656 22.064 248.952 21.232 252.728 21.232C258.616 21.232 263.192 23.088 266.456 26.8C269.72 30.512 271.352 35.952 271.352 43.12V70H259.064V44.272C259.064 40.176 258.232 37.04 256.568 34.864C254.904 32.688 252.312 31.6 248.792 31.6C245.336 31.6 242.488 32.816 240.248 35.248C238.072 37.68 236.984 41.072 236.984 45.424V70H224.696ZM299.998 71.152C295.198 71.152 290.942 70.128 287.23 68.08C283.518 66.032 280.606 63.152 278.494 59.44C276.382 55.728 275.326 51.44 275.326 46.576C275.326 41.648 276.35 37.264 278.398 33.424C280.51 29.584 283.39 26.608 287.038 24.496C290.75 22.32 295.102 21.232 300.094 21.232C304.766 21.232 308.894 22.256 312.478 24.304C316.062 26.352 318.846 29.168 320.83 32.752C322.878 36.272 323.902 40.208 323.902 44.56C323.902 45.264 323.87 46 323.806 46.768C323.806 47.536 323.774 48.336 323.711 49.168H287.518C287.774 52.88 289.054 55.792 291.358 57.904C293.726 60.016 296.574 61.072 299.902 61.072C302.398 61.072 304.478 60.528 306.142 59.44C307.87 58.288 309.15 56.816 309.983 55.024H322.462C321.566 58.032 320.062 60.784 317.951 63.28C315.903 65.712 313.342 67.632 310.27 69.04C307.262 70.448 303.839 71.152 299.998 71.152ZM300.094 31.216C297.086 31.216 294.43 32.08 292.126 33.808C289.822 35.472 288.35 38.032 287.71 41.488H311.422C311.23 38.352 310.078 35.856 307.967 34C305.854 32.144 303.23 31.216 300.094 31.216ZM327.998 70V0.879997H340.286V70H327.998ZM346.601 70V0.879997H358.889V70H346.601ZM388.341 71.152C383.541 71.152 379.285 70.128 375.573 68.08C371.861 66.032 368.949 63.152 366.837 59.44C364.725 55.728 363.669 51.44 363.669 46.576C363.669 41.648 364.693 37.264 366.741 33.424C368.853 29.584 371.733 26.608 375.381 24.496C379.093 22.32 383.445 21.232 388.437 21.232C393.109 21.232 397.237 22.256 400.821 24.304C404.405 26.352 407.189 29.168 409.173 32.752C411.221 36.272 412.245 40.208 412.245 44.56C412.245 45.264 412.213 46 412.149 46.768C412.149 47.536 412.117 48.336 412.053 49.168H375.861C376.117 52.88 377.397 55.792 379.701 57.904C382.069 60.016 384.917 61.072 388.245 61.072C390.741 61.072 392.821 60.528 394.485 59.44C396.213 58.288 397.493 56.816 398.325 55.024H410.805C409.909 58.032 408.405 60.784 406.293 63.28C404.245 65.712 401.685 67.632 398.613 69.04C395.605 70.448 392.181 71.152 388.341 71.152ZM388.437 31.216C385.429 31.216 382.773 32.08 380.469 33.808C378.165 35.472 376.693 38.032 376.053 41.488H399.765C399.573 38.352 398.421 35.856 396.309 34C394.197 32.144 391.573 31.216 388.437 31.216ZM433.263 70V2.8H476.655V12.688H445.551V31.504H470.703V41.2H445.551V70H433.263ZM479.61 70V22.384H490.554L491.706 31.312C493.434 28.24 495.77 25.808 498.714 24.016C501.722 22.16 505.242 21.232 509.274 21.232V34.192H505.818C503.13 34.192 500.73 34.608 498.618 35.44C496.506 36.272 494.842 37.712 493.626 39.76C492.474 41.808 491.898 44.656 491.898 48.304V70H479.61ZM527.849 71.152C523.753 71.152 520.393 70.512 517.769 69.232C515.145 67.888 513.193 66.128 511.913 63.952C510.633 61.776 509.993 59.376 509.993 56.752C509.993 52.336 511.721 48.752 515.177 46C518.633 43.248 523.817 41.872 530.729 41.872H542.825V40.72C542.825 37.456 541.897 35.056 540.041 33.52C538.185 31.984 535.881 31.216 533.129 31.216C530.633 31.216 528.457 31.824 526.601 33.04C524.745 34.192 523.593 35.92 523.145 38.224H511.145C511.465 34.768 512.617 31.76 514.601 29.2C516.649 26.64 519.273 24.688 522.473 23.344C525.673 21.936 529.257 21.232 533.225 21.232C540.009 21.232 545.353 22.928 549.257 26.32C553.161 29.712 555.113 34.512 555.113 40.72V70H544.649L543.497 62.32C542.089 64.88 540.105 66.992 537.545 68.656C535.049 70.32 531.817 71.152 527.849 71.152ZM530.633 61.552C534.153 61.552 536.873 60.4 538.793 58.096C540.777 55.792 542.025 52.944 542.537 49.552H532.073C528.809 49.552 526.473 50.16 525.065 51.376C523.657 52.528 522.953 53.968 522.953 55.696C522.953 57.552 523.657 58.992 525.065 60.016C526.473 61.04 528.329 61.552 530.633 61.552ZM580.759 55.792C578.455 55.792 576.311 55.536 574.327 55.024L570.775 58.576C571.863 59.152 573.335 59.632 575.191 60.016C577.047 60.4 580.055 60.784 584.215 61.168C590.551 61.744 595.159 63.248 598.039 65.68C600.919 68.112 602.359 71.472 602.359 75.76C602.359 78.576 601.591 81.232 600.055 83.728C598.519 86.288 596.151 88.336 592.951 89.872C589.751 91.472 585.655 92.272 580.663 92.272C573.879 92.272 568.407 90.992 564.247 88.432C560.087 85.936 558.007 82.16 558.007 77.104C558.007 72.816 560.087 69.104 564.247 65.968C562.967 65.392 561.847 64.784 560.887 64.144C559.991 63.504 559.191 62.832 558.487 62.128V59.92L566.839 51.088C563.127 47.824 561.271 43.632 561.271 38.512C561.271 35.312 562.039 32.4 563.575 29.776C565.175 27.152 567.415 25.072 570.295 23.536C573.175 22 576.663 21.232 580.759 21.232C583.447 21.232 585.943 21.616 588.247 22.384H606.295V29.872L598.135 30.448C599.415 32.88 600.055 35.568 600.055 38.512C600.055 41.712 599.287 44.624 597.751 47.248C596.215 49.872 593.975 51.952 591.031 53.488C588.151 55.024 584.727 55.792 580.759 55.792ZM580.759 46.384C583.255 46.384 585.303 45.712 586.903 44.368C588.567 43.024 589.399 41.104 589.399 38.608C589.399 36.112 588.567 34.192 586.903 32.848C585.303 31.504 583.255 30.832 580.759 30.832C578.135 30.832 576.023 31.504 574.423 32.848C572.823 34.192 572.023 36.112 572.023 38.608C572.023 41.104 572.823 43.024 574.423 44.368C576.023 45.712 578.135 46.384 580.759 46.384ZM569.239 75.856C569.239 78.224 570.327 79.984 572.503 81.136C574.743 82.352 577.463 82.96 580.663 82.96C583.735 82.96 586.231 82.32 588.151 81.04C590.071 79.824 591.031 78.16 591.031 76.048C591.031 74.32 590.391 72.88 589.111 71.728C587.895 70.576 585.431 69.872 581.719 69.616C579.095 69.424 576.663 69.136 574.423 68.752C572.567 69.776 571.223 70.896 570.391 72.112C569.623 73.328 569.239 74.576 569.239 75.856ZM630.276 71.152C625.476 71.152 621.22 70.128 617.508 68.08C613.796 66.032 610.884 63.152 608.772 59.44C606.66 55.728 605.604 51.44 605.604 46.576C605.604 41.648 606.628 37.264 608.676 33.424C610.788 29.584 613.668 26.608 617.316 24.496C621.028 22.32 625.38 21.232 630.372 21.232C635.044 21.232 639.172 22.256 642.756 24.304C646.34 26.352 649.124 29.168 651.108 32.752C653.156 36.272 654.18 40.208 654.18 44.56C654.18 45.264 654.148 46 654.084 46.768C654.084 47.536 654.052 48.336 653.988 49.168H617.796C618.052 52.88 619.332 55.792 621.636 57.904C624.004 60.016 626.852 61.072 630.18 61.072C632.676 61.072 634.756 60.528 636.42 59.44C638.148 58.288 639.428 56.816 640.26 55.024H652.74C651.844 58.032 650.34 60.784 648.228 63.28C646.18 65.712 643.62 67.632 640.548 69.04C637.54 70.448 634.116 71.152 630.276 71.152ZM630.372 31.216C627.364 31.216 624.708 32.08 622.404 33.808C620.1 35.472 618.628 38.032 617.988 41.488H641.7C641.508 38.352 640.356 35.856 638.244 34C636.132 32.144 633.508 31.216 630.372 31.216ZM658.275 70V22.384H669.123L670.083 30.448C671.555 27.632 673.667 25.392 676.419 23.728C679.235 22.064 682.531 21.232 686.307 21.232C692.195 21.232 696.771 23.088 700.035 26.8C703.299 30.512 704.931 35.952 704.931 43.12V70H692.643V44.272C692.643 40.176 691.811 37.04 690.147 34.864C688.483 32.688 685.891 31.6 682.371 31.6C678.915 31.6 676.067 32.816 673.827 35.248C671.651 37.68 670.563 41.072 670.563 45.424V70H658.275Z" fill="#FEFEFE"/>
</svg>
